<svg xmlns="http://www.w3.org/2000/svg" width="1917" height="635.742" viewBox="0 0 1917 635.742">
  <g id="Group_73" data-name="Group 73" transform="translate(-944.5 -731)">
    <g id="Layer_2" data-name="Layer 2" transform="translate(944.5 730.998)">
      <g id="Layer_1" data-name="Layer 1" transform="translate(20 20.002)">
        <path id="Path_1161" data-name="Path 1161" d="M20,199.42V436.307a60.983,60.983,0,0,0,30.489,52.819L255.646,607.574a60.953,60.953,0,0,0,60.966,0L521.778,489.121a60.966,60.966,0,0,0,30.486-52.814V199.42a60.971,60.971,0,0,0-30.484-52.8L316.612,28.172a60.953,60.953,0,0,0-60.966,0L50.48,146.619A60.978,60.978,0,0,0,20,199.42Z" transform="translate(-20 -20.002)" fill="#007bff" stroke="#fff" stroke-miterlimit="10" stroke-width="40"/>
        <path id="Path_1162" data-name="Path 1162" d="M438.9,427.421a39.051,39.051,0,0,0,0-55.225,48.819,48.819,0,0,0-69.027,0,61.017,61.017,0,0,0,0,86.28,76.28,76.28,0,0,0,107.852,0,95.317,95.317,0,0,0,0-134.808,119.139,119.139,0,0,0-168.514,0,148.924,148.924,0,0,0,0,210.642c72.7,72.711,190.6,72.711,263.3,0a231.762,231.762,0,0,0,66.583-137.3" transform="translate(-106.828 -115.024)" fill="#007bff" stroke="#fff" stroke-linecap="round" stroke-miterlimit="10" stroke-width="40"/>
      </g>
    </g>
    <text id="Mixcore" transform="translate(1496.5 868)" fill="#007bff" font-size="355" font-family="Arial-BoldMT, Arial" font-weight="700"><tspan x="0" y="321">Mixcore</tspan></text>
  </g>
</svg>
