<svg xmlns="http://www.w3.org/2000/svg" viewBox="0 0 863.38 961.57"><defs><style>.cls-1,.cls-2{fill:#57a1f2;stroke:#fff;stroke-miterlimit:10;stroke-width:40px;}.cls-2{stroke-linecap:round;}</style></defs><title>mixcore-logo-light-blue</title><g id="Layer_2" data-name="Layer 2"><g id="Layer_1-2" data-name="Layer 1"><path class="cls-1" d="M20,297.55V664A94.33,94.33,0,0,0,67.15,745.7L384.53,928.94a94.29,94.29,0,0,0,94.31,0L796.22,745.7A94.31,94.31,0,0,0,843.38,664V297.55a94.32,94.32,0,0,0-47.16-81.68L478.84,32.64a94.29,94.29,0,0,0-94.31,0L67.15,215.87A94.33,94.33,0,0,0,20,297.55Z"/><path class="cls-2" d="M533.7,503.26a60.41,60.41,0,0,0,0-85.43,75.52,75.52,0,0,0-106.78,0,94.39,94.39,0,0,0,0,133.47,118,118,0,0,0,166.84,0,147.45,147.45,0,0,0,0-208.54c-72-72-188.7-72-260.68,0-90,90-90,235.87,0,325.85,112.47,112.48,294.84,112.48,407.31,0a358.52,358.52,0,0,0,103-212.39"/></g></g></svg>