<svg xmlns="http://www.w3.org/2000/svg" viewBox="0 0 118.94 24.98"><defs><style>.cls-1{fill:#fff;}</style></defs><title>mixcore-logo-white-25px</title><g id="Layer_2" data-name="Layer 2"><g id="Layer_1-2" data-name="Layer 1"><path class="cls-1" d="M0,25V0H25V25Zm1.38-1.46H23.52V1.39H1.38Z"/><path class="cls-1" d="M8.25,4.21V20.7h-4V4.21Z"/><path class="cls-1" d="M10.43,4.19h4V20.7h-4Z"/><path class="cls-1" d="M20.7,20.71h-4V4.2h4Z"/><path class="cls-1" d="M50,6.84A7.84,7.84,0,0,1,50.9,11v6.39a1.47,1.47,0,0,1-.43,1.09,1.52,1.52,0,0,1-2.14,0,1.47,1.47,0,0,1-.43-1.09V11a3.75,3.75,0,0,0-.54-2.16,2.09,2.09,0,0,0-1.88-.79,2.87,2.87,0,0,0-2.19.84A3,3,0,0,0,42.51,11v6.39a1.51,1.51,0,0,1-.43,1.09,1.43,1.43,0,0,1-1.07.44,1.45,1.45,0,0,1-1.08-.44,1.5,1.5,0,0,1-.42-1.09V11A3.75,3.75,0,0,0,39,8.86a2.11,2.11,0,0,0-1.88-.79,2.84,2.84,0,0,0-2.19.84A3,3,0,0,0,34.11,11v6.39a1.5,1.5,0,0,1-.42,1.09,1.45,1.45,0,0,1-1.08.44,1.43,1.43,0,0,1-1.07-.44,1.5,1.5,0,0,1-.42-1.09V7.1A1.52,1.52,0,0,1,31.54,6a1.43,1.43,0,0,1,1.07-.44A1.45,1.45,0,0,1,33.69,6a1.52,1.52,0,0,1,.42,1.09v.4A6.2,6.2,0,0,1,35.82,6a4.39,4.39,0,0,1,2.31-.64,3.8,3.8,0,0,1,4,2.75,5.91,5.91,0,0,1,1.73-1.9,4.4,4.4,0,0,1,2.64-.85A3.71,3.71,0,0,1,50,6.84Z"/><path class="cls-1" d="M53.62,3.68a1.2,1.2,0,0,1-.35-1V2.23a1.15,1.15,0,0,1,.38-1A2.09,2.09,0,0,1,54.85,1a2.05,2.05,0,0,1,1.22.27,1.2,1.2,0,0,1,.35,1V2.7a1.17,1.17,0,0,1-.36,1A2.24,2.24,0,0,1,54.82,4,2,2,0,0,1,53.62,3.68Zm2.3,14.82a1.53,1.53,0,0,1-2.15,0,1.5,1.5,0,0,1-.42-1.09V7.1A1.52,1.52,0,0,1,53.77,6a1.53,1.53,0,0,1,2.15,0,1.52,1.52,0,0,1,.42,1.09V17.41A1.5,1.5,0,0,1,55.92,18.5Z"/><path class="cls-1" d="M69,17.46a1.43,1.43,0,0,1-.48,1.08,1.47,1.47,0,0,1-1,.45,1.5,1.5,0,0,1-1.23-.65l-3-3.72-2.92,3.72a1.58,1.58,0,0,1-.54.46,1.34,1.34,0,0,1-.66.16,1.52,1.52,0,0,1-1-.4,1.18,1.18,0,0,1-.47-.92,1.46,1.46,0,0,1,.37-.95l3.48-4.25L57.87,8a1.35,1.35,0,0,1-.33-.9A1.41,1.41,0,0,1,58,6a1.5,1.5,0,0,1,2.28.19L63.36,10l2.85-3.77a1.43,1.43,0,0,1,1.2-.68,1.35,1.35,0,0,1,1,.42,1.25,1.25,0,0,1,.41.93,1.47,1.47,0,0,1-.35,1L65,12.09l3.59,4.48A1.35,1.35,0,0,1,69,17.46Z"/><path class="cls-1" d="M79.58,6a2,2,0,0,1,1.29,1.76,1.5,1.5,0,0,1-.32,1,1,1,0,0,1-.85.41A1.69,1.69,0,0,1,79.05,9a2.8,2.8,0,0,1-.49-.3,2.86,2.86,0,0,0-.46-.31,3,3,0,0,0-.74-.23,4.6,4.6,0,0,0-.78-.1,3.8,3.8,0,0,0-2.94,1.16,4.33,4.33,0,0,0-1.06,3,4.29,4.29,0,0,0,1.07,3,3.57,3.57,0,0,0,2.75,1.19,4.27,4.27,0,0,0,1.83-.3,4.7,4.7,0,0,0,.41-.26,2.6,2.6,0,0,1,.49-.29,1.29,1.29,0,0,1,.55-.1,1.25,1.25,0,0,1,1,.4,1.48,1.48,0,0,1,.36,1,1.45,1.45,0,0,1-.7,1.13,5.43,5.43,0,0,1-1.84.84,9.73,9.73,0,0,1-2.45.31,6.36,6.36,0,0,1-3.39-.9,6.12,6.12,0,0,1-2.26-2.49,7.73,7.73,0,0,1-.8-3.53,7.53,7.53,0,0,1,.84-3.6,6.16,6.16,0,0,1,2.34-2.46,6.52,6.52,0,0,1,3.39-.89A7.61,7.61,0,0,1,79.58,6Z"/><path class="cls-1" d="M94.51,15.85a6.32,6.32,0,0,1-2.46,2.46,7.16,7.16,0,0,1-6.88,0,6.37,6.37,0,0,1-2.45-2.46,7.1,7.1,0,0,1-.9-3.58,7.17,7.17,0,0,1,.9-3.59,6.53,6.53,0,0,1,2.45-2.47,7.09,7.09,0,0,1,6.88,0,6.48,6.48,0,0,1,2.46,2.47,7.17,7.17,0,0,1,.9,3.59A7.1,7.1,0,0,1,94.51,15.85ZM91.9,10.08A3.77,3.77,0,0,0,90.53,8.6a3.71,3.71,0,0,0-3.82,0,3.73,3.73,0,0,0-1.38,1.48,4.6,4.6,0,0,0-.51,2.19,4.52,4.52,0,0,0,.51,2.17,3.73,3.73,0,0,0,1.38,1.48,3.77,3.77,0,0,0,3.82,0,3.77,3.77,0,0,0,1.37-1.48,4.52,4.52,0,0,0,.51-2.17A4.6,4.6,0,0,0,91.9,10.08Z"/><path class="cls-1" d="M105.49,5.75a1.27,1.27,0,0,1,.51,1,1.54,1.54,0,0,1-.4,1.16,1.3,1.3,0,0,1-.95.39,2.36,2.36,0,0,1-.84-.18l-.34-.1a2,2,0,0,0-.56-.07,2.18,2.18,0,0,0-1.25.4,2.9,2.9,0,0,0-1,1.21,4.43,4.43,0,0,0-.39,1.93v5.92a1.5,1.5,0,0,1-.42,1.09,1.53,1.53,0,0,1-2.15,0,1.5,1.5,0,0,1-.42-1.09V7.1A1.52,1.52,0,0,1,97.71,6a1.53,1.53,0,0,1,2.15,0,1.52,1.52,0,0,1,.42,1.09v.32a3.88,3.88,0,0,1,1.65-1.56,5.05,5.05,0,0,1,2.3-.54A1.92,1.92,0,0,1,105.49,5.75Z"/><path class="cls-1" d="M118.47,12.92a1.59,1.59,0,0,1-1,.37h-8.24a3.7,3.7,0,0,0,1.37,2.31,3.83,3.83,0,0,0,2.42.84,5.16,5.16,0,0,0,1.6-.19,3.57,3.57,0,0,0,.91-.4l.47-.28a1.87,1.87,0,0,1,.84-.23,1.23,1.23,0,0,1,.9.38,1.2,1.2,0,0,1,.38.87,1.56,1.56,0,0,1-.7,1.22,6,6,0,0,1-1.87,1,7.57,7.57,0,0,1-2.38.4,7.29,7.29,0,0,1-3.66-.88,6.07,6.07,0,0,1-2.41-2.41,7.07,7.07,0,0,1-.85-3.46,7.65,7.65,0,0,1,.9-3.77,6.32,6.32,0,0,1,2.38-2.48,6.07,6.07,0,0,1,3.14-.87,5.82,5.82,0,0,1,3.11.9,6.66,6.66,0,0,1,2.34,2.43,6.5,6.5,0,0,1,.87,3.29A1.27,1.27,0,0,1,118.47,12.92ZM109.2,10.8h6.55v-.18a2.59,2.59,0,0,0-1-1.8,3.24,3.24,0,0,0-2.1-.75A3.1,3.1,0,0,0,109.2,10.8Z"/></g></g></svg>