<?xml version="1.0" encoding="utf-8"?>
<!-- Generator: Adobe Illustrator 22.0.1, SVG Export Plug-In . SVG Version: 6.00 Build 0)  -->
<svg version="1.1" id="Layer_1" xmlns="http://www.w3.org/2000/svg" xmlns:xlink="http://www.w3.org/1999/xlink" x="0px" y="0px"
	 viewBox="0 0 123 123" style="enable-background:new 0 0 123 123;" xml:space="preserve">
<style type="text/css">
	.st0{fill:#2196F3;stroke:#2196F3;}
</style>
<path class="st0" d="M61.5,61.5C44.9,58.5,34,42.6,37,26S55.9-1.5,72.5,1.5C80.8,3,86.3,11,84.8,19.3S75.3,33,67,31.5
	s-16.2,4-17.8,12.3S53.2,60,61.5,61.5L61.5,61.5C64.5,44.9,80.4,34,97,37s27.5,18.9,24.5,35.5c-1.5,8.3-9.5,13.8-17.8,12.3
	S90,75.3,91.5,67s-4-16.2-12.3-17.8S63,53.2,61.5,61.5C78.1,64.5,89,80.4,86,97s-18.9,27.5-35.5,24.5c-8.3-1.5-13.8-9.5-12.2-17.8
	S47.7,90,56,91.5s16.2-4,17.8-12.3S69.8,63,61.5,61.5C58.5,78.1,42.6,89,26,86S-1.5,67.1,1.5,50.5C3,42.2,11,36.7,19.3,38.3
	S33,47.7,31.5,56s4,16.2,12.3,17.8S60,69.8,61.5,61.5"/>
</svg>
