<svg width="224" height="217" viewBox="0 0 224 217" fill="none" xmlns="http://www.w3.org/2000/svg">
<path d="M39.3206 22.7559C30.1118 22.7559 22.5469 30.3208 22.5469 39.5295C22.5469 48.7383 30.1118 56.3032 39.3206 56.3032C48.5293 56.3012 56.0942 48.7362 56.0942 39.5274C56.0942 30.3187 48.5293 22.7559 39.3206 22.7559ZM39.3206 49.0666C34.0576 49.0666 30.1118 44.7905 30.1118 39.8578C30.1118 34.9251 34.3878 30.649 39.3206 30.649C44.2533 30.649 48.5293 34.9251 48.5293 39.8578C48.5293 44.7905 44.5837 49.0666 39.3206 49.0666Z" fill="black"/>
<path d="M190.28 33.9348C190.28 35.9335 188.66 37.5543 186.663 37.5543C184.664 37.5543 183.043 35.9335 183.043 33.9348C183.043 31.9382 184.664 30.3174 186.663 30.3174C188.66 30.3174 190.28 31.9382 190.28 33.9348Z" fill="black"/>
<path d="M175.147 33.9348C175.147 35.9335 173.529 37.5543 171.53 37.5543C169.533 37.5543 167.913 35.9335 167.913 33.9348C167.913 31.9382 169.533 30.3174 171.53 30.3174C173.529 30.3174 175.147 31.9382 175.147 33.9348Z" fill="black"/>
<path d="M197.517 45.1194C197.517 47.118 195.898 48.7368 193.899 48.7368C191.9 48.7368 190.282 47.1181 190.282 45.1194C190.282 43.1228 191.9 41.502 193.899 41.502C195.898 41.502 197.517 43.1228 197.517 45.1194Z" fill="black"/>
<path d="M182.717 45.1194C182.717 47.118 181.098 48.7368 179.099 48.7368C177.101 48.7368 175.482 47.1181 175.482 45.1194C175.482 43.1228 177.101 41.502 179.099 41.502C181.098 41.502 182.717 43.1228 182.717 45.1194Z" fill="black"/>
<path d="M160.348 33.9348C160.348 35.9335 158.729 37.5543 156.73 37.5543C154.734 37.5543 153.113 35.9335 153.113 33.9348C153.113 31.9382 154.734 30.3174 156.73 30.3174C158.729 30.3174 160.348 31.9382 160.348 33.9348Z" fill="black"/>
<path d="M167.917 45.1194C167.917 47.118 166.298 48.7368 164.299 48.7368C162.3 48.7368 160.682 47.1181 160.682 45.1194C160.682 43.1228 162.3 41.502 164.299 41.502C166.298 41.502 167.917 43.1228 167.917 45.1194Z" fill="black"/>
<path d="M145.547 33.9348C145.547 35.9335 143.929 37.5543 141.93 37.5543C139.933 37.5543 138.312 35.9335 138.312 33.9348C138.312 31.9382 139.933 30.3174 141.93 30.3174C143.929 30.3174 145.547 31.9382 145.547 33.9348Z" fill="black"/>
<path d="M152.789 45.1194C152.789 47.118 151.168 48.7368 149.172 48.7368C147.173 48.7368 145.552 47.1181 145.552 45.1194C145.552 43.1228 147.173 41.502 149.172 41.502C151.168 41.502 152.789 43.1228 152.789 45.1194Z" fill="black"/>
<path d="M130.42 33.9348C130.42 35.9335 128.801 37.5543 126.802 37.5543C124.804 37.5543 123.185 35.9335 123.185 33.9348C123.185 31.9382 124.804 30.3174 126.802 30.3174C128.801 30.3174 130.42 31.9382 130.42 33.9348Z" fill="black"/>
<path d="M137.989 45.1194C137.989 47.118 136.368 48.7368 134.371 48.7368C132.373 48.7368 130.752 47.1181 130.752 45.1194C130.752 43.1228 132.373 41.502 134.371 41.502C136.368 41.502 137.989 43.1228 137.989 45.1194Z" fill="black"/>
<path d="M223.824 61.5632V17.8197C223.824 8.28269 216.259 0.717773 206.722 0.717773H17.2818C7.74482 0.717773 0.179903 8.28269 0.179903 17.8197V61.8915C0.179903 67.4827 2.81039 72.0871 6.75797 75.3764C2.81229 78.6655 0.179903 83.2701 0.179903 88.8613V132.933C0.179903 142.47 7.74482 150.035 17.2818 150.035H108.053V180.294C100.818 181.937 94.8968 187.529 93.5817 194.765L3.79322 194.763C1.81932 194.763 0.175781 196.407 0.175781 198.381C0.175781 200.355 1.81932 201.998 3.79322 201.998H93.5817C95.2252 210.55 102.79 216.798 111.999 216.798C121.208 216.798 128.443 210.22 130.417 201.998H220.205C222.179 201.998 223.823 200.355 223.823 198.381C223.823 196.407 222.179 194.763 220.205 194.763H130.417C128.773 187.528 123.182 181.607 115.945 180.291V150.033H206.717C216.254 150.033 223.819 142.468 223.819 132.931V88.531C223.819 82.9398 221.188 78.3354 217.24 75.0461C221.188 71.759 223.819 67.1545 223.819 61.5633L223.824 61.5632ZM123.184 198.051C123.184 204.299 118.251 209.233 112.001 209.233C105.754 209.233 100.819 204.301 100.819 198.051C100.819 191.803 105.752 186.868 112.001 186.868C118.249 186.868 123.184 191.801 123.184 198.051ZM216.26 88.5309V132.603C216.26 137.866 211.984 142.47 206.393 142.47H17.2803C12.0173 142.47 7.41287 138.194 7.41287 132.603V88.5309C7.41287 83.2679 11.6889 78.6636 17.2803 78.6636H206.72C211.983 78.6656 216.259 83.27 216.259 88.5309H216.26ZM17.2792 71.429C12.0162 71.429 7.41182 67.153 7.41182 61.5616V17.8202C7.41182 12.5572 11.6879 7.95286 17.2792 7.95286H206.719C211.982 7.95286 216.587 12.2289 216.587 17.8202V61.892C216.587 67.155 212.311 71.7594 206.719 71.7594H17.2792V71.429Z" fill="black"/>
<path d="M39.3206 127.338C48.5293 127.338 56.0942 119.773 56.0942 110.565C56.0942 101.356 48.5293 93.791 39.3206 93.791C30.1118 93.791 22.5469 101.356 22.5469 110.565C22.5469 119.776 30.1118 127.338 39.3206 127.338ZM39.3206 101.028C44.5836 101.028 48.5293 105.304 48.5293 110.236C48.5293 115.169 44.2533 119.445 39.3206 119.445C34.3878 119.445 30.1118 115.169 30.1118 110.236C30.1118 105.304 34.0596 101.028 39.3206 101.028Z" fill="black"/>
<path d="M190.28 104.98C190.28 106.978 188.66 108.597 186.663 108.597C184.664 108.597 183.043 106.978 183.043 104.98C183.043 102.981 184.664 101.362 186.663 101.362C188.66 101.362 190.28 102.981 190.28 104.98Z" fill="black"/>
<path d="M175.147 104.98C175.147 106.978 173.529 108.597 171.53 108.597C169.533 108.597 167.913 106.978 167.913 104.98C167.913 102.981 169.533 101.362 171.53 101.362C173.529 101.362 175.147 102.981 175.147 104.98Z" fill="black"/>
<path d="M197.517 116.16C197.517 118.156 195.898 119.777 193.899 119.777C191.9 119.777 190.282 118.156 190.282 116.16C190.282 114.161 191.9 112.54 193.899 112.54C195.898 112.54 197.517 114.161 197.517 116.16Z" fill="black"/>
<path d="M182.717 116.16C182.717 118.156 181.098 119.777 179.099 119.777C177.101 119.777 175.482 118.156 175.482 116.16C175.482 114.161 177.101 112.54 179.099 112.54C181.098 112.54 182.717 114.161 182.717 116.16Z" fill="black"/>
<path d="M160.348 104.98C160.348 106.978 158.729 108.597 156.73 108.597C154.734 108.597 153.113 106.978 153.113 104.98C153.113 102.981 154.734 101.362 156.73 101.362C158.729 101.362 160.348 102.981 160.348 104.98Z" fill="black"/>
<path d="M167.917 116.16C167.917 118.156 166.298 119.777 164.299 119.777C162.3 119.777 160.682 118.156 160.682 116.16C160.682 114.161 162.3 112.54 164.299 112.54C166.298 112.54 167.917 114.161 167.917 116.16Z" fill="black"/>
<path d="M145.547 104.98C145.547 106.978 143.929 108.597 141.93 108.597C139.933 108.597 138.312 106.978 138.312 104.98C138.312 102.981 139.933 101.362 141.93 101.362C143.929 101.362 145.547 102.981 145.547 104.98Z" fill="black"/>
<path d="M152.789 116.16C152.789 118.156 151.168 119.777 149.172 119.777C147.173 119.777 145.552 118.156 145.552 116.16C145.552 114.161 147.173 112.54 149.172 112.54C151.168 112.54 152.789 114.161 152.789 116.16Z" fill="black"/>
<path d="M130.42 104.98C130.42 106.978 128.801 108.597 126.802 108.597C124.804 108.597 123.185 106.978 123.185 104.98C123.185 102.981 124.804 101.362 126.802 101.362C128.801 101.362 130.42 102.981 130.42 104.98Z" fill="black"/>
<path d="M137.989 116.16C137.989 118.156 136.368 119.777 134.371 119.777C132.373 119.777 130.752 118.156 130.752 116.16C130.752 114.161 132.373 112.54 134.371 112.54C136.368 112.54 137.989 114.161 137.989 116.16Z" fill="black"/>
</svg>
