<svg width="276" height="218" viewBox="0 0 276 218" fill="none" xmlns="http://www.w3.org/2000/svg">
<path d="M121.042 146.311C123.493 146.311 125.481 148.299 125.481 150.75C125.481 153.201 123.493 155.189 121.042 155.189H50.7264C36.7711 155.189 24.1181 149.742 14.9902 140.754C5.94902 131.857 0.359375 119.508 0.359375 105.552C0.359375 91.8613 5.92153 79.4499 14.9094 70.4663C23.8808 61.4742 36.2959 55.9163 49.9996 55.9163C53.0513 55.9163 56.0904 56.2074 59.0826 56.7628C60.433 57.0106 61.7606 57.3162 63.0676 57.6713C67.3498 41.903 76.507 28.1332 88.8127 18.0924C102.116 7.23611 119.106 0.717773 137.594 0.717773C153.864 0.717773 168.982 5.77018 181.449 14.3882C193.175 22.4923 202.551 33.7593 208.344 46.9509C209.715 46.6288 211.103 46.3603 212.499 46.1498C215.212 45.7368 217.991 45.52 220.801 45.52C235.929 45.52 249.637 51.6625 259.558 61.5817C269.498 71.503 275.64 85.2189 275.64 100.357C275.64 115.729 269.469 129.385 259.488 139.23C249.43 149.155 235.492 155.192 220.107 155.192H154.337C151.886 155.192 149.898 153.204 149.898 150.753C149.898 148.302 151.886 146.314 154.337 146.314H220.107C233.094 146.314 244.834 141.247 253.277 132.916C261.608 124.7 266.758 113.261 266.758 100.357C266.758 87.6689 261.608 76.1746 253.293 67.8602C244.987 59.5436 233.49 54.4001 220.797 54.4001C218.416 54.4001 216.077 54.5818 213.816 54.9246C211.476 55.2776 209.207 55.8083 207.04 56.4834C204.812 57.1751 202.404 56.0209 201.574 53.8117C196.627 40.7089 187.761 29.5095 176.415 21.6719C165.402 14.0615 152.023 9.59719 137.588 9.59719C121.202 9.59719 106.154 15.3618 94.3936 24.9585C82.4225 34.7265 73.8184 48.4757 70.6057 64.1738L70.3827 64.9646C69.5052 67.244 66.9388 68.3775 64.6594 67.5001C62.3592 66.6122 59.9497 65.9226 57.4824 65.4684C55.108 65.0286 52.6014 64.7973 49.9936 64.7973C38.7388 64.7973 28.5495 69.3604 21.1722 76.7356C13.7928 84.0986 9.23389 94.29 9.23389 105.553C9.23389 117.038 13.8031 127.169 21.1949 134.441C28.7001 141.829 39.1542 146.311 50.7225 146.311H121.038L121.042 146.311ZM85.2252 193.182H118.847C119.69 189.536 121.546 186.278 124.102 183.722C126.658 181.166 129.916 179.309 133.562 178.467V123.781H110.454C108.003 123.781 106.014 121.793 106.014 119.342C106.014 116.891 108.003 114.903 110.454 114.903H165.547C167.997 114.903 169.986 116.891 169.986 119.342C169.986 121.793 167.997 123.781 165.547 123.781H142.44V178.467C146.086 179.309 149.344 181.166 151.9 183.722C154.457 186.278 156.313 189.536 157.155 193.182H190.777C191.624 189.536 193.48 186.278 196.036 183.722C199.591 180.166 204.51 177.963 209.936 177.963C215.352 177.963 220.264 180.168 223.819 183.722C227.391 187.277 229.594 192.2 229.594 197.622C229.594 203.048 227.391 207.966 223.836 211.521C220.28 215.077 215.362 217.282 209.936 217.282C204.51 217.282 199.592 215.079 196.036 211.523C193.48 208.967 191.624 205.705 190.777 202.058H157.155C156.313 205.705 154.457 208.967 151.9 211.523C148.345 215.079 143.427 217.282 138.001 217.282C132.574 217.282 127.657 215.079 124.101 211.523C121.545 208.967 119.688 205.705 118.846 202.058H85.2242C84.3776 205.705 82.5214 208.967 79.9653 211.523C76.4098 215.079 71.4918 217.282 66.0655 217.282C60.6392 217.282 55.7213 215.077 52.1656 211.521C48.6101 207.966 46.4068 203.048 46.4068 197.622C46.4068 192.2 48.6099 187.277 52.1656 183.722L52.4444 183.466C55.9751 180.063 60.7815 177.963 66.0656 177.963C71.492 177.963 76.4098 180.166 79.9655 183.722C82.5216 186.278 84.3778 189.536 85.2243 193.182L85.2252 193.182ZM217.564 189.996C215.621 188.049 212.92 186.843 209.938 186.843C206.963 186.843 204.265 188.053 202.318 190C200.371 191.948 199.156 194.646 199.156 197.621C199.156 200.597 200.371 203.299 202.318 205.247C204.265 207.194 206.963 208.404 209.938 208.404C212.914 208.404 215.612 207.189 217.559 205.242C219.506 203.295 220.716 200.597 220.716 197.622C220.716 194.65 219.506 191.948 217.564 189.996L217.564 189.996ZM145.625 190C143.678 188.053 140.979 186.843 138.004 186.843C135.029 186.843 132.33 188.053 130.383 190C128.436 191.947 127.226 194.646 127.226 197.621C127.226 200.597 128.436 203.299 130.383 205.247C132.33 207.194 135.029 208.404 138.004 208.404C140.979 208.404 143.678 207.194 145.625 205.247C147.572 203.299 148.782 200.597 148.782 197.621C148.782 194.646 147.572 191.948 145.625 190ZM73.6918 190C71.7448 188.053 69.0461 186.843 66.0709 186.843C63.1864 186.843 60.5684 187.973 58.6339 189.804L58.448 190C56.501 191.947 55.291 194.65 55.291 197.621C55.291 200.597 56.501 203.295 58.448 205.242C60.3951 207.189 63.0937 208.403 66.069 208.403C69.0443 208.403 71.7427 207.193 73.6899 205.246C75.637 203.299 76.851 200.597 76.851 197.621C76.851 194.646 75.637 191.948 73.6899 190L73.6918 190Z" fill="black"/>
</svg>
