<svg xmlns="http://www.w3.org/2000/svg" viewBox="0 0 1567.3 325"><defs><style>.cls-1{fill:#fff;}</style></defs><g id="Layer_2" data-name="Layer 2"><g id="Layer_1-2" data-name="Layer 1"><g id="Layer_2-2" data-name="Layer 2"><g id="mixcore"><path class="cls-1" d="M405.4,86h40v18.3a67.59,67.59,0,0,1,22.8-16.8,65.77,65.77,0,0,1,27.3-5.6,51.2,51.2,0,0,1,27,7.3,52.32,52.32,0,0,1,19.3,21.4,64.65,64.65,0,0,1,23.3-21.4,63.65,63.65,0,0,1,30.3-7.3c11.3,0,21.3,2.6,29.9,7.9a45.56,45.56,0,0,1,18.6,20.7c3.8,8.5,5.6,22.3,5.6,41.5v93.4H609.2V164.5c0-18.1-2.2-30.3-6.7-36.7s-11.2-9.6-20.2-9.6a30.59,30.59,0,0,0-18.4,5.9,35.5,35.5,0,0,0-12.1,16.2c-2.7,6.9-4,17.9-4,33.2v71.9H507.6V168.2c0-14.3-1.1-24.6-3.2-31s-5.3-11.2-9.5-14.3a25.21,25.21,0,0,0-15.3-4.7,30.16,30.16,0,0,0-18.1,5.9,35.43,35.43,0,0,0-12.2,16.6c-2.7,7.1-4,18.4-4,33.7v70.9h-40Z"/><path class="cls-1" d="M703.3,20.4a24.48,24.48,0,0,1,18,7.6,25.51,25.51,0,0,1,7.5,18.5,25,25,0,0,1-7.5,18.2,25,25,0,0,1-36-.1,25.57,25.57,0,0,1-7.5-18.7,24.68,24.68,0,0,1,7.4-18A24.39,24.39,0,0,1,703.3,20.4ZM683.3,86h40V245.4h-40Z"/><path class="cls-1" d="M745.3,86h46.4l31.5,43.4L854.5,86h45.7l-54.1,75,61.2,84.4H860.9L823,193.1l-37.7,52.3H739.6l60.5-83.8Z"/><path class="cls-1" d="M1083.7,118.2l-33.3,18.3c-6.3-6.6-12.4-11.1-18.6-13.6a54.23,54.23,0,0,0-21.5-3.8c-15,0-27.1,4.5-36.3,13.4s-13.9,20.4-13.9,34.3c0,13.6,4.4,24.6,13.3,33.2s20.6,12.9,35,12.9q26.85,0,41.8-18.3l31.5,21.6q-25.65,33.3-72.4,33.3c-28,0-50-8.3-65.8-24.9s-23.8-36-23.8-58.3A82.19,82.19,0,0,1,963.6,93c13.8-7.4,29.3-11.1,46.4-11.1,15.8,0,30,3.1,42.6,9.4A80.9,80.9,0,0,1,1083.7,118.2Z"/><path class="cls-1" d="M1194.5,81.9a85.17,85.17,0,0,1,42.4,11.3,82.5,82.5,0,0,1,42.1,72.3,83.32,83.32,0,0,1-11.2,42.2,81.72,81.72,0,0,1-30.5,30.7,83.84,83.84,0,0,1-42.6,11q-34.35,0-58.5-24.4c-16.2-16.3-24.2-36-24.2-59.3,0-24.9,9.1-45.6,27.4-62.3Q1163.25,81.95,1194.5,81.9Zm.7,37.6c-12.4,0-22.8,4.3-31,13s-12.4,19.7-12.4,33.2c0,13.9,4.1,25.1,12.3,33.7s18.5,12.9,31,12.9,22.9-4.3,31.3-13,12.5-19.8,12.5-33.5-4.1-24.8-12.3-33.3-18.7-12.9-31.4-13Z"/><path class="cls-1" d="M1302.3,86h34.3v20.1c3.7-7.9,8.6-13.9,14.8-18a36.42,36.42,0,0,1,20.2-6.2,37.11,37.11,0,0,1,16.3,4.1l-12.5,34.4c-4.7-2.3-8.5-3.5-11.6-3.5q-9.15,0-15.6,11.4c-4.3,7.6-6.4,22.6-6.4,44.8l.2,7.8v64.4h-39.7Z"/><path class="cls-1" d="M1567.3,177.2H1438.8c1.9,11.3,6.8,20.3,14.9,27s18.3,10,30.8,10a53.08,53.08,0,0,0,38.5-15.7l33.7,15.8c-8.4,11.9-18.5,20.7-30.2,26.4s-25.6,8.6-41.8,8.6q-37.5,0-61.1-23.6c-15.7-15.8-23.6-35.5-23.6-59.3q0-36.45,23.5-60.6c15.7-16.1,35.3-24.1,59-24.1q37.65,0,61.2,24.1t23.6,63.6Zm-40-31.5a40.3,40.3,0,0,0-15.6-21.7,45.23,45.23,0,0,0-27.1-8.3,47.49,47.49,0,0,0-29.3,9.4q-8,5.85-14.7,20.7h86.7Z"/><path class="cls-1" d="M0,325V0H325V325Zm17.9-19H306V18.1H18Z"/><path class="cls-1" d="M107.4,54.8V269.4H54.6V54.8Z"/><path class="cls-1" d="M135.7,54.5h52.6V269.3H135.7V54.5Z"/><path class="cls-1" d="M269.3,269.5H216.7V54.7h52.6Z"/></g></g></g></g></svg>