<svg xmlns="http://www.w3.org/2000/svg" viewBox="0 0 527.59 112"><defs><style>.cls-1,.cls-2{fill:#f06;}.cls-1{fill-rule:evenodd;}.cls-3{fill:#fff;}</style></defs><g id="Layer_2" data-name="Layer 2"><g id="Layer_1-2" data-name="Layer 1"><path id="路径" class="cls-1" d="M100.33,11.7C89.76,1.18,74.57,0,56,0S22.19,1.19,11.63,11.74,0,37.49,0,56.05s1.07,33.77,11.64,44.33S37.41,112,56,112s33.8-1.07,44.36-11.62S112,74.63,112,56.05s-1.09-33.8-11.67-44.35Z"/><path class="cls-2" d="M150.48,35.15q5-7.57,12.06-7.58,10.89,0,16.22,9.29a35.62,35.62,0,0,1,2.83-3.36,23.09,23.09,0,0,1,5.28-3.85,14.92,14.92,0,0,1,7.48-2.08,18.26,18.26,0,0,1,14.3,6.57q5.76,6.55,5.76,21.72V74.54a30.25,30.25,0,0,1-.16,3.68,8.38,8.38,0,0,1-1,2.83q-1.4,2.88-8.22,2.88c-4.48,0-7.22-1-8.22-3a9.87,9.87,0,0,1-.91-2.83,32.35,32.35,0,0,1-.16-3.68V55.75q0-9.28-6.61-9.28c-2.5,0-4.18.81-5.07,2.45a14.74,14.74,0,0,0-1.34,6.94V74.54a30.28,30.28,0,0,1-.16,3.74,8.67,8.67,0,0,1-1,2.77c-1,1.92-3.77,2.88-8.33,2.88s-7.22-1-8.22-3a9.51,9.51,0,0,1-.9-2.83,30.14,30.14,0,0,1-.16-3.68V55.75q0-9.28-6.62-9.28-6.41,0-6.41,9.28v18.9a30.37,30.37,0,0,1-.16,3.68,8.38,8.38,0,0,1-1,2.83c-1.07,1.85-3.84,2.77-8.33,2.77s-7.22-1-8.22-2.88a9.68,9.68,0,0,1-.9-2.77,30.28,30.28,0,0,1-.16-3.74V37a30.44,30.44,0,0,1,.16-3.69,7.51,7.51,0,0,1,1-2.72c1.07-1.92,3.59-2.88,7.58-2.88s6.58.64,7.79,1.92A7.78,7.78,0,0,1,150.48,35.15Z"/><path class="cls-2" d="M240.51,17.27a4.54,4.54,0,0,1-2.83,2.19,23,23,0,0,1-10.78,0,4.5,4.5,0,0,1-2.83-2.24,9.36,9.36,0,0,1-1-2.83,32.48,32.48,0,0,1-.16-3.68A32.35,32.35,0,0,1,223.11,7,8.82,8.82,0,0,1,224,4.3c1-1.92,3.77-2.88,8.33-2.88s7.18,1,8.11,2.88a8.38,8.38,0,0,1,1,2.83,30.37,30.37,0,0,1,.16,3.68,30.44,30.44,0,0,1-.16,3.69A8.26,8.26,0,0,1,240.51,17.27ZM223,37.07a32.61,32.61,0,0,1,.16-3.68,10,10,0,0,1,.91-2.83c1-1.85,3.77-2.77,8.33-2.77q5.11,0,7.26,1.81a6,6,0,0,1,1.92,4.59c.07.71.1,1.75.1,3.1V74.65a30.37,30.37,0,0,1-.16,3.68,8.38,8.38,0,0,1-1,2.83q-1.4,2.78-8.22,2.77T224,81.05a10.07,10.07,0,0,1-.91-2.77,32.45,32.45,0,0,1-.16-3.74Z"/><path class="cls-2" d="M289.13,55.75l11.85,12q3.84,3.84,3.84,6.56T301,80.78q-3.84,3.8-6.51,3.79T288,80.73L276.22,68.88,264.37,80.73c-2.56,2.56-4.72,3.84-6.46,3.84s-3.91-1.26-6.51-3.79-3.9-4.69-3.9-6.51,1.28-4,3.84-6.56l11.85-12-11.85-12Q247.5,40,247.5,37.23t3.9-6.56c2.6-2.56,4.76-3.84,6.51-3.84s3.9,1.28,6.46,3.84l11.85,11.95L288,30.67q3.84-3.84,6.51-3.84T301,30.67q3.84,3.84,3.84,6.56T301,43.8Z"/><path class="cls-2" d="M326.17,55.81a8.69,8.69,0,0,0,3,7,9.74,9.74,0,0,0,6.35,2.51,11.07,11.07,0,0,0,6.3-2c1.95-1.31,3.54-2,4.75-2q3.19,0,7.79,5.66,2.46,3.09,2.46,5.55,0,4-5.88,7.58-6.07,4.26-14.94,4.27-9.93,0-19.11-7.16a25.39,25.39,0,0,1-7.15-9.12A28.46,28.46,0,0,1,307,55.59a27.77,27.77,0,0,1,2.77-12.49,25.81,25.81,0,0,1,7.15-9q8.87-7,18.9-7a28,28,0,0,1,7.9,1.12,26.58,26.58,0,0,1,5.65,2.19L351,31.42c1.28.85,2.28,1.53,3,2a6.13,6.13,0,0,1,2.78,4.86,11.51,11.51,0,0,1-2.25,6.14q-3.84,5.87-7.36,5.87c-1.35,0-3.28-.78-5.77-2.35a7.69,7.69,0,0,0-5.49-1.81,10.23,10.23,0,0,0-6.67,2.56A8.69,8.69,0,0,0,326.17,55.81Z"/><path class="cls-2" d="M371.11,34.72a29.33,29.33,0,0,1,40.88,0q8.86,8.28,8.86,21.08a27.74,27.74,0,0,1-4.59,15.75A28.77,28.77,0,0,1,405.1,81.64a30.24,30.24,0,0,1-13.6,3.25,29,29,0,0,1-13.67-3.47,30.21,30.21,0,0,1-11.15-10.24,26.89,26.89,0,0,1-4.54-15.32Q362.14,43.05,371.11,34.72Zm13.34,28.77a11.32,11.32,0,0,0,6.94,2.62,11.6,11.6,0,0,0,7-2.67q3.52-2.67,3.53-7.9c0-3.49-1.11-6.08-3.31-7.79a11.44,11.44,0,0,0-7.15-2.56,11.22,11.22,0,0,0-7.16,2.66Q381,50.52,381,55.7C381,59.15,382.17,61.75,384.45,63.49Z"/><path class="cls-2" d="M466,28.32a7.25,7.25,0,0,1,3.36,2.19q1.33,1.54,1.34,5a16.88,16.88,0,0,1-2,7.47q-2,4.06-5.87,4.06a8.38,8.38,0,0,1-3.69-.85,10.67,10.67,0,0,0-4.64-.86,8.43,8.43,0,0,0-5.39,2,6.13,6.13,0,0,0-2.51,4.91V74.65a30.37,30.37,0,0,1-.16,3.68,8.38,8.38,0,0,1-1,2.83c-1.07,1.85-3.84,2.77-8.33,2.77-3.41,0-5.87-.6-7.36-1.81a6.4,6.4,0,0,1-1.92-4.59V37a30.44,30.44,0,0,1,.16-3.69,8.81,8.81,0,0,1,.9-2.72q1.5-2.88,8.33-2.88,6.4,0,8,2.45a6.12,6.12,0,0,1,1.18,3.53,16.35,16.35,0,0,1,1.55-1.82A19.56,19.56,0,0,1,452.23,29a12.49,12.49,0,0,1,5.82-1.81,29.1,29.1,0,0,1,4.21.26A25.52,25.52,0,0,1,466,28.32Z"/><path class="cls-2" d="M527.59,49.08q0,6.57-3.26,9.72a10.17,10.17,0,0,1-7.2,3.14h-25.3q0,3,3.52,5a14.05,14.05,0,0,0,7,2,29.51,29.51,0,0,0,9.71-1.28l1.18-.43a10.76,10.76,0,0,1,4.27-1.17q3.41,0,5.87,4.8a11.83,11.83,0,0,1,1.38,4.91q0,9.5-22.73,9.5a34.38,34.38,0,0,1-14-2.72,23.84,23.84,0,0,1-9.55-7.21,30.64,30.64,0,0,1-6.73-19.32q0-13.44,8.7-21.51t21.72-8Q517,26.51,524,37A21.69,21.69,0,0,1,527.59,49.08Zm-22.52,3.15q4.05,0,4.05-3.42a4.81,4.81,0,0,0-1.87-4,8.37,8.37,0,0,0-5.33-1.49A10.77,10.77,0,0,0,495,46.2c-2.28,1.89-3.41,3.9-3.41,6Z"/><path class="cls-3" d="M28.36,33.72A23.16,23.16,0,0,1,28.48,31a6.36,6.36,0,0,1,.76-2.12q1.13-2.16,6.24-2.16c3.73,0,6,1,6.64,3a15.77,15.77,0,0,1,.4,4.16V78.28a23.13,23.13,0,0,1-.12,2.8,6.34,6.34,0,0,1-.76,2.08q-1.12,2.16-6.24,2.16-5.59,0-6.56-3a12.55,12.55,0,0,1-.48-4.08Z"/><path class="cls-3" d="M48.92,33.72A23.16,23.16,0,0,1,49,31a6.36,6.36,0,0,1,.76-2.12q1.13-2.16,6.24-2.16c3.73,0,6,1,6.64,3a15.77,15.77,0,0,1,.4,4.16V78.28a23.13,23.13,0,0,1-.12,2.8,6.34,6.34,0,0,1-.76,2.08Q61.08,85.32,56,85.32q-5.6,0-6.56-3a12.55,12.55,0,0,1-.48-4.08Z"/><path class="cls-3" d="M69.48,33.72A23.16,23.16,0,0,1,69.6,31a6.36,6.36,0,0,1,.76-2.12q1.13-2.16,6.24-2.16,5.59,0,6.64,3a15.77,15.77,0,0,1,.4,4.16V78.28a23.13,23.13,0,0,1-.12,2.8,6.34,6.34,0,0,1-.76,2.08q-1.12,2.16-6.24,2.16-5.59,0-6.56-3a12.55,12.55,0,0,1-.48-4.08Z"/></g></g></svg>