<svg xmlns="http://www.w3.org/2000/svg" viewBox="0 0 549.4 112"><defs><style>.cls-1,.cls-3{fill:#f06;}.cls-1{fill-rule:evenodd;}.cls-2{fill:#fff;}</style></defs><g id="Layer_2" data-name="Layer 2"><g id="Layer_1-2" data-name="Layer 1"><path id="路径" class="cls-1" d="M100.33,11.7C89.76,1.18,74.57,0,56,0S22.19,1.19,11.63,11.74,0,37.49,0,56.05s1.07,33.77,11.64,44.33S37.41,112,56,112s33.8-1.07,44.36-11.62S112,74.63,112,56.05s-1.09-33.8-11.67-44.35Z"/><path class="cls-2" d="M28.36,33.72A23.16,23.16,0,0,1,28.48,31a6.36,6.36,0,0,1,.76-2.12q1.13-2.16,6.24-2.16c3.73,0,6,1,6.64,3a15.77,15.77,0,0,1,.4,4.16V78.28a23.13,23.13,0,0,1-.12,2.8,6.34,6.34,0,0,1-.76,2.08q-1.12,2.16-6.24,2.16-5.59,0-6.56-3a12.55,12.55,0,0,1-.48-4.08Z"/><path class="cls-2" d="M48.92,33.72A23.16,23.16,0,0,1,49,31a6.36,6.36,0,0,1,.76-2.12q1.13-2.16,6.24-2.16c3.73,0,6,1,6.64,3a15.77,15.77,0,0,1,.4,4.16V78.28a23.13,23.13,0,0,1-.12,2.8,6.34,6.34,0,0,1-.76,2.08Q61.08,85.32,56,85.32q-5.6,0-6.56-3a12.55,12.55,0,0,1-.48-4.08Z"/><path class="cls-2" d="M69.48,33.72A23.16,23.16,0,0,1,69.6,31a6.36,6.36,0,0,1,.76-2.12q1.13-2.16,6.24-2.16,5.59,0,6.64,3a15.77,15.77,0,0,1,.4,4.16V78.28a23.13,23.13,0,0,1-.12,2.8,6.34,6.34,0,0,1-.76,2.08q-1.12,2.16-6.24,2.16-5.59,0-6.56-3a12.55,12.55,0,0,1-.48-4.08Z"/><path class="cls-3" d="M140.36,27.83h14.08v6.45a24,24,0,0,1,8-5.93,23.38,23.38,0,0,1,9.62-2,17.89,17.89,0,0,1,9.5,2.58,18.65,18.65,0,0,1,6.81,7.53A22.71,22.71,0,0,1,196.62,29a22.42,22.42,0,0,1,10.65-2.58,19.8,19.8,0,0,1,10.53,2.78,16.13,16.13,0,0,1,6.53,7.27q2,4.48,2,14.6V83.93H212.13V55.47q0-9.54-2.37-12.92a8.11,8.11,0,0,0-7.11-3.37,10.73,10.73,0,0,0-6.47,2.06,12.15,12.15,0,0,0-4.26,5.7q-1.39,3.63-1.39,11.68V83.93H176.35V56.76q0-7.53-1.11-10.91a9.85,9.85,0,0,0-3.33-5,8.8,8.8,0,0,0-5.38-1.65,10.59,10.59,0,0,0-6.38,2.08,12.48,12.48,0,0,0-4.29,5.86q-1.43,3.77-1.42,11.86v25H140.36Z"/><path class="cls-3" d="M245.21,4.73a8.62,8.62,0,0,1,6.35,2.68,8.9,8.9,0,0,1,2.65,6.5,8.79,8.79,0,0,1-2.62,6.42A8.51,8.51,0,0,1,245.32,23a8.66,8.66,0,0,1-6.41-2.71,9.08,9.08,0,0,1-2.64-6.57,8.67,8.67,0,0,1,2.62-6.35A8.61,8.61,0,0,1,245.21,4.73Zm-7,23.1h14.08v56.1H238.17Z"/><path class="cls-3" d="M260,27.83h16.35l11.09,15.29,11-15.29h16.07l-19,26.4L317,83.93H300.67l-13.35-18.4-13.27,18.4H258l21.3-29.51Z"/><path class="cls-3" d="M379.09,39.18l-11.72,6.44a19.82,19.82,0,0,0-6.53-4.79,19.48,19.48,0,0,0-7.56-1.34q-7.9,0-12.78,4.71a16,16,0,0,0-4.88,12.07A15.53,15.53,0,0,0,340.32,68q4.69,4.53,12.34,4.53,9.45,0,14.71-6.45l11.1,7.6q-9,11.73-25.47,11.74-14.79,0-23.18-8.77a29.49,29.49,0,0,1-4.3-35.53,28.65,28.65,0,0,1,11.37-10.77,33.94,33.94,0,0,1,16.32-3.92,33,33,0,0,1,15,3.33A28.39,28.39,0,0,1,379.09,39.18Z"/><path class="cls-3" d="M418.12,26.39a29.7,29.7,0,0,1,14.93,4,29.12,29.12,0,0,1,14.83,25.47,29.46,29.46,0,0,1-3.95,14.85,28.38,28.38,0,0,1-10.75,10.8,29.65,29.65,0,0,1-15,3.9,28,28,0,0,1-20.6-8.59A28.47,28.47,0,0,1,389,55.93,28.4,28.4,0,0,1,398.68,34,28.16,28.16,0,0,1,418.12,26.39Zm.24,13.25a14.5,14.5,0,0,0-10.93,4.56,16.22,16.22,0,0,0-4.36,11.68q0,7.32,4.31,11.86a14.42,14.42,0,0,0,10.92,4.54,14.61,14.61,0,0,0,11-4.59,16.4,16.4,0,0,0,4.39-11.81,16.26,16.26,0,0,0-4.32-11.73A14.56,14.56,0,0,0,418.36,39.64Z"/><path class="cls-3" d="M456.07,27.83h12.07V34.9a14.94,14.94,0,0,1,5.21-6.34,12.49,12.49,0,0,1,7.11-2.17,13.25,13.25,0,0,1,5.73,1.44L481.8,40a9.77,9.77,0,0,0-4.07-1.24q-3.25,0-5.49,4T470,58.51l.05,2.74V83.93h-14Z"/><path class="cls-3" d="M549.35,60H504.13a15.09,15.09,0,0,0,5.23,9.51A16.47,16.47,0,0,0,520.22,73a18.76,18.76,0,0,0,13.56-5.52l11.86,5.57A28,28,0,0,1,535,82.36a33.2,33.2,0,0,1-14.69,3q-13.2,0-21.5-8.33t-8.3-20.86q0-12.84,8.27-21.32a27.83,27.83,0,0,1,20.76-8.48q13.25,0,21.55,8.48t8.3,22.4ZM535.27,48.87a14.1,14.1,0,0,0-5.5-7.63,15.94,15.94,0,0,0-9.53-2.94,16.86,16.86,0,0,0-10.33,3.3q-2.79,2.07-5.16,7.27Z"/></g></g></svg>