<svg xmlns="http://www.w3.org/2000/svg" viewBox="0 0 120.5 24.98"><title>mixcore-logo-black-25px</title><g id="Layer_2" data-name="Layer 2"><g id="Layer_1-2" data-name="Layer 1"><path d="M31.17,6.61h3.07V8A5.36,5.36,0,0,1,36,6.72a5.27,5.27,0,0,1,2.11-.43,3.88,3.88,0,0,1,2.07.57A4,4,0,0,1,41.66,8.5a4.86,4.86,0,0,1,4.12-2.21,4.36,4.36,0,0,1,2.3.61,3.58,3.58,0,0,1,1.43,1.59,8.5,8.5,0,0,1,.43,3.19v7.18h-3.1V12.65a5.44,5.44,0,0,0-.51-2.83,1.79,1.79,0,0,0-1.56-.73,2.35,2.35,0,0,0-1.41.45,2.61,2.61,0,0,0-.93,1.24,7.78,7.78,0,0,0-.31,2.55v5.53H39V12.93a8.4,8.4,0,0,0-.24-2.38,2.2,2.2,0,0,0-.73-1.1,1.94,1.94,0,0,0-1.18-.36,2.33,2.33,0,0,0-1.39.45,2.76,2.76,0,0,0-.94,1.28,8.1,8.1,0,0,0-.31,2.59v5.45H31.17Z"/><path d="M54.07,1.56a1.86,1.86,0,0,1,1.38.59A1.92,1.92,0,0,1,56,3.57,1.92,1.92,0,0,1,55.46,5a1.84,1.84,0,0,1-1.37.58A1.9,1.9,0,0,1,52.69,5a2,2,0,0,1-.58-1.44,1.85,1.85,0,0,1,.58-1.38A1.89,1.89,0,0,1,54.07,1.56ZM52.53,6.61H55.6V18.86H52.53Z"/><path d="M57.29,6.61h3.57L63.29,10l2.4-3.34H69.2L65,12.38l4.71,6.48H66.18l-2.92-4-2.9,4H56.85l4.65-6.44Z"/><path d="M83.31,9.09l-2.56,1.4a4.28,4.28,0,0,0-1.43-1,4.19,4.19,0,0,0-1.65-.3,3.87,3.87,0,0,0-2.79,1,3.53,3.53,0,0,0-1.07,2.64,3.41,3.41,0,0,0,1,2.55,3.7,3.7,0,0,0,2.69,1A3.93,3.93,0,0,0,80.75,15l2.42,1.66a7.45,7.45,0,0,1-10.62.65A6.37,6.37,0,0,1,74.09,7.15a7.41,7.41,0,0,1,3.56-.86A7.29,7.29,0,0,1,80.93,7,6.17,6.17,0,0,1,83.31,9.09Z"/><path d="M91.83,6.29a6.47,6.47,0,0,1,3.26.87,6.2,6.2,0,0,1,2.38,2.36,6.32,6.32,0,0,1,.86,3.2A6.5,6.5,0,0,1,97.47,16a6.34,6.34,0,0,1-2.35,2.36,6.54,6.54,0,0,1-3.28.85,6.14,6.14,0,0,1-4.5-1.88,6.23,6.23,0,0,1-1.86-4.55A6.19,6.19,0,0,1,87.59,8,6.14,6.14,0,0,1,91.83,6.29Zm0,2.9a3.13,3.13,0,0,0-2.38,1,3.51,3.51,0,0,0-1,2.55,3.61,3.61,0,0,0,.95,2.59,3.13,3.13,0,0,0,2.38,1,3.19,3.19,0,0,0,2.4-1,3.54,3.54,0,0,0,1-2.57,3.55,3.55,0,0,0-.94-2.57A3.21,3.21,0,0,0,91.88,9.19Z"/><path d="M100.12,6.61h2.63V8.15a3.29,3.29,0,0,1,1.14-1.38,2.73,2.73,0,0,1,1.56-.48,2.93,2.93,0,0,1,1.25.32l-1,2.65a2.13,2.13,0,0,0-.89-.27,1.42,1.42,0,0,0-1.2.87,8,8,0,0,0-.49,3.45v5.55h-3Z"/><path d="M120.49,13.63h-9.87a3.24,3.24,0,0,0,1.14,2.07,3.56,3.56,0,0,0,2.37.77,4.11,4.11,0,0,0,3-1.2l2.59,1.22a6.2,6.2,0,0,1-2.32,2,7.24,7.24,0,0,1-3.21.66,6.33,6.33,0,0,1-4.69-1.82,6.19,6.19,0,0,1-1.82-4.56,6.36,6.36,0,0,1,1.81-4.65A6.06,6.06,0,0,1,114,6.29a6.29,6.29,0,0,1,4.71,1.86A6.67,6.67,0,0,1,120.5,13Zm-3.07-2.43a3.16,3.16,0,0,0-1.2-1.66,3.5,3.5,0,0,0-2.09-.64,3.69,3.69,0,0,0-2.25.72,4,4,0,0,0-1.13,1.58Z"/><path d="M0,25V0H25V25Zm1.38-1.45H23.52V1.39H1.38Z"/><path d="M8.26,4.21v16.5H4.2V4.21Z"/><path d="M10.43,4.19h4.05V20.7H10.43Z"/><path d="M20.7,20.72h-4V4.21h4Z"/></g></g></svg>