<?xml version="1.0" encoding="utf-8"?>
<!-- Generator: Adobe Illustrator 25.0.0, SVG Export Plug-In . SVG Version: 6.00 Build 0)  -->
<svg version="1.1" id="Layer_1" xmlns="http://www.w3.org/2000/svg" xmlns:xlink="http://www.w3.org/1999/xlink" x="0px" y="0px"
	 viewBox="0 0 1567.5 325" style="enable-background:new 0 0 1567.5 325;" xml:space="preserve">
<style type="text/css">
	.st0{fill-rule:evenodd;clip-rule:evenodd;fill:#FF0066;}
	.st1{fill:#FF0066;}
</style>
<g id="Layer_2_2_">
	<g id="Layer_1-2">
		<path class="st0" d="M286,36.1c-30-30-73.3-33.4-126.4-33.4S63.2,6.1,32.9,36.1S-0.2,109.7-0.2,162.5S3,258.9,32.9,288.9
			s73.6,33.4,126.7,33.4s96.4-3.1,126.7-33.1s33.1-73.6,33.1-126.7S316.3,66.1,286,36.1z M121.1,99.4v126.7c0,2.6,0,5.4-0.3,8
			c-0.3,2-1.1,4-2.3,6c-2,4-8,6.3-17.7,6.3c-10.6,0-16.8-2.9-18.8-8.6c-1.1-3.7-1.4-7.7-1.4-11.7V98.9c0-2.6,0-5.1,0.3-7.7
			c0.3-2,1.1-4.3,2.3-6c2.3-4,8-6.3,17.7-6.3c10.6,0,17.1,2.9,18.8,8.6C120.8,91.5,121.4,95.5,121.1,99.4z M179.6,99.4v126.7
			c0,2.6,0,5.4-0.3,8c-0.3,2-1.1,4-2.3,6c-2,4-8,6.3-17.7,6.3c-10.6,0-16.8-2.9-18.8-8.6c-1.1-3.7-1.4-7.7-1.4-11.7v-127
			c0-2.6,0-5.1,0.3-7.7c0.3-2,1.1-4.3,2.3-6c2.3-4,8-6.3,17.7-6.3c10.6,0,17.1,2.9,18.8,8.6C179.6,91.5,179.9,95.5,179.6,99.4z
			 M238.4,99.4v126.7c0,2.6,0,5.4-0.3,8c-0.3,2-1.1,4-2.3,6c-2,4-8,6.3-17.7,6.3c-10.6,0-16.8-2.9-18.8-8.6
			c-1.1-3.7-1.4-7.7-1.4-11.7V98.9c0-2.6,0-5.1,0.3-7.7c0.3-2,1.1-4.3,2.3-6c2.3-4,8-6.3,17.7-6.3c10.6,0,16.8,2.9,18.8,8.6
			C238.4,91.5,238.7,95.5,238.4,99.4z"/>
		<path class="st1" d="M400.4,82h40.2v18.3c6.3-7.1,14-12.8,22.8-16.8c8.6-3.7,18-5.7,27.4-5.7s18.8,2.3,27.1,7.4
			c8.3,5.1,15.1,12.6,19.4,21.4c6-8.8,14-16.3,23.4-21.4c9.4-4.9,19.7-7.4,30.2-7.4c10.6-0.3,20.8,2.6,30,8
			c8.3,4.9,14.8,12,18.5,20.8c3.7,8.6,5.7,22.5,5.7,41.7v93.9h-40.5v-81c0-18.3-2.3-30.5-6.8-36.8c-4.6-6.6-12.3-10-20.3-9.7
			c-6.6,0-13.1,2-18.5,6c-5.7,4-9.7,9.7-12.3,16.3c-2.6,6.8-4,18-4,33.4v72.2h-40.5v-77.6c0-14.3-1.1-24.8-3.1-31.1
			c-1.7-5.7-4.9-10.6-9.4-14.3c-4.6-3.1-10-4.9-15.4-4.9c-6.6,0-12.8,2-18.3,6c-5.7,4.3-10,10-12.3,16.8c-2.9,7.1-4,18.5-4,34v71.3
			h-40.2V82H400.4z"/>
		<path class="st1" d="M699.4,16.1c6.8,0,13.4,2.6,18.3,7.7c4.9,4.9,7.7,11.7,7.4,18.5c0,6.8-2.6,13.4-7.4,18.3
			c-4.6,4.9-11.1,7.7-18,7.7s-13.4-2.9-18.3-7.7c-4.9-4.9-7.7-11.7-7.4-18.8c0-6.8,2.6-13.4,7.4-18C686,19,692.6,16.1,699.4,16.1z
			 M679.5,82h40.2v160.1h-40.2V82z"/>
		<path class="st1" d="M741.7,82h46.8l31.7,43.7L851.5,82h45.9l-54.2,75.3l61.1,84.7h-46.5l-38.2-52.5l-37.9,52.5H736l60.8-84.2
			L741.7,82z"/>
		<path class="st1" d="M1081.5,114.6l-33.4,18.3c-5.1-5.7-11.4-10.6-18.5-13.7c-6.8-2.6-14.3-4-21.7-3.7c-15.1,0-27.1,4.6-36.5,13.4
			c-9.4,8.8-14.3,21.4-14,34.5c-0.6,12.6,4.3,24.8,13.4,33.4c8.8,8.6,20.5,12.8,35.1,12.8c18,0,32-6.3,41.9-18.3l31.7,21.7
			c-17.1,22.3-41.4,33.4-72.8,33.4c-28.2,0-50.2-8.3-66.2-25.1c-26.5-27.1-31.4-68.8-12.3-101.3c7.7-13.1,19.1-23.7,32.5-30.8
			C975,81.5,991,77.8,1007.3,78c14.8-0.3,29.4,3.1,42.8,9.4C1062.9,93.7,1073.5,103.2,1081.5,114.6z"/>
		<path class="st1" d="M1192.7,78c14.8,0,29.7,4,42.5,11.4c26.2,14.8,42.5,42.5,42.2,72.8c0,14.8-3.7,29.4-11.4,42.2
			c-7.1,12.8-17.7,23.4-30.8,30.8c-13.1,7.4-27.7,11.4-42.8,11.1c-22.3,0.3-43.4-8.6-58.8-24.5c-16-15.7-24.8-37.1-24.5-59.6
			c-0.6-24,9.7-46.8,27.7-62.5C1152.2,85.8,1172.2,77.8,1192.7,78z M1193.6,115.7c-11.7-0.3-23.1,4.6-31.1,13.1
			c-8.6,9.1-12.8,21.1-12.6,33.4c0,14,4,25.1,12.3,34c8,8.6,19.4,13.4,31.1,12.8c12,0.3,23.4-4.6,31.4-13.1
			c8.6-9.1,13.1-21.1,12.6-33.7c0.6-12.3-4-24.5-12.3-33.4C1216.7,120,1205.3,115.4,1193.6,115.7z"/>
		<path class="st1" d="M1301.2,82h34.5v20.3c3.1-7.4,8.3-13.7,14.8-18c6-4,13.1-6.3,20.3-6.3c5.7,0,11.4,1.4,16.3,4l-12.6,34.8
			c-3.4-2-7.4-3.1-11.7-3.4c-6.3,0-11.4,3.7-15.7,11.4c-4.3,7.7-6.3,22.5-6.3,45.1v7.7v64.8h-39.9L1301.2,82z"/>
		<path class="st1" d="M1567.1,173.9h-129c1.4,10.6,6.8,20.3,14.8,27.1c8.8,6.8,19.7,10.6,31.1,10c14.6,0.3,28.5-5.4,38.8-15.7
			l34,16c-7.7,11.4-18.3,20.5-30.2,26.5c-13.1,6-27.4,8.8-41.9,8.6c-25.1,0-45.7-8-61.3-23.7c-15.7-16-23.7-35.7-23.7-59.6
			c0-24.5,8-44.8,23.7-60.8c15.4-16,37.1-24.8,59.3-24.3c25.1,0,45.7,8,61.3,24.3s23.7,37.4,23.7,63.9L1567.1,173.9z M1527.1,142.2
			c-2.6-8.8-8-16.5-15.7-21.7c-8-5.7-17.4-8.6-27.1-8.3c-10.6-0.3-20.8,3.1-29.4,9.4c-5.4,4-10.3,10.8-14.8,20.8h87V142.2z"/>
	</g>
</g>
</svg>
