<svg xmlns="http://www.w3.org/2000/svg" viewBox="0 0 1547.53 325"><defs><style>.cls-1{fill:#729f00;}</style></defs><title>Asset 4</title><g id="Layer_2" data-name="Layer 2"><g id="mixcore"><path class="cls-1" d="M0,325V0H325V325Zm17.94-19H306V18.07h-288Z"/><path class="cls-1" d="M107.39,54.79V269.36H54.63V54.79Z"/><path class="cls-1" d="M135.71,54.54h52.58V269.29H135.71Z"/><path class="cls-1" d="M269.29,269.46H216.71V54.71h52.58Z"/><path class="cls-1" d="M649.88,88.94q12.35,19.66,12.35,54.44v83.2a19.47,19.47,0,0,1-5.52,14.13,20,20,0,0,1-28,0,19.44,19.44,0,0,1-5.53-14.13v-83.2q0-17.88-7-28.12T591.71,105q-18.21,0-28.44,10.88T553,143.38v83.2a19.47,19.47,0,0,1-5.52,14.13,20,20,0,0,1-28,0A19.44,19.44,0,0,1,514,226.58v-83.2q0-17.88-7-28.12T482.51,105q-18.21,0-28.44,10.88t-10.24,27.47v83.2a19.47,19.47,0,0,1-5.52,14.13,20,20,0,0,1-27.95,0,19.44,19.44,0,0,1-5.53-14.13V92.35a19.49,19.49,0,0,1,5.53-14.14,20,20,0,0,1,27.95,0,19.52,19.52,0,0,1,5.52,14.14v5.2a79.37,79.37,0,0,1,22.27-20,56.28,56.28,0,0,1,30.06-8.28q40.95,0,52.32,35.75,7.47-13.65,22.59-24.7a56.61,56.61,0,0,1,34.29-11Q637.53,69.28,649.88,88.94Z"/><path class="cls-1" d="M697.66,47.83q-4.56-3.59-4.55-12.68V29q0-9.1,4.87-12.68t15.6-3.57q11.37,0,15.93,3.57T734.06,29v6.17c0,6.29-1.58,10.56-4.72,12.84s-8.5,3.41-16.08,3.41Q702.21,51.4,697.66,47.83Zm29.9,192.88a20,20,0,0,1-27.95,0,19.44,19.44,0,0,1-5.53-14.13V92.35a19.49,19.49,0,0,1,5.53-14.14,20,20,0,0,1,27.95,0,19.52,19.52,0,0,1,5.52,14.14V226.58A19.47,19.47,0,0,1,727.56,240.71Z"/><path class="cls-1" d="M897.2,227.23a18.61,18.61,0,0,1-6.17,14q-6.18,5.85-13.65,5.85-9.43,0-15.93-8.45l-39-48.42-38,48.42a20.41,20.41,0,0,1-7,6,18.28,18.28,0,0,1-8.61,2.12q-6.83,0-13-5.2t-6.18-12a19,19,0,0,1,4.88-12.35L799.7,161.9l-46.8-58.17A18.12,18.12,0,0,1,748.68,92a18.32,18.32,0,0,1,6-13.82,19.56,19.56,0,0,1,13.81-5.68q9.43,0,15.93,8.12l40,49.73L861.45,81.3q6.18-8.77,15.6-8.77a17.9,17.9,0,0,1,13.17,5.36,16.81,16.81,0,0,1,5.36,12.19A19.38,19.38,0,0,1,891,102.75l-44.85,54.6L893,215.53A18.1,18.1,0,0,1,897.2,227.23Z"/><path class="cls-1" d="M1035.33,77.89q16.89,8.61,16.9,22.91a19.59,19.59,0,0,1-4.23,12.51,13.39,13.39,0,0,1-11,5.37,20.7,20.7,0,0,1-8.45-1.47,29.84,29.84,0,0,1-6.33-3.9,47.2,47.2,0,0,0-6-4.06,40.54,40.54,0,0,0-9.58-2.92,53.27,53.27,0,0,0-10.24-1.3q-24.37,0-38.19,15.11t-13.81,39.49q0,23.4,14,38.83t35.75,15.44q15.93,0,23.73-3.9a44.11,44.11,0,0,0,5.36-3.41,37,37,0,0,1,6.34-3.74,17.67,17.67,0,0,1,7.15-1.3q8.11,0,12.84,5.2t4.71,13.33q0,7.8-9.1,14.62t-24,10.89a121,121,0,0,1-31.85,4.06q-25,0-44-11.7a78.62,78.62,0,0,1-29.41-32.34q-10.41-20.62-10.4-46,0-26.32,10.89-46.8a80.11,80.11,0,0,1,30.38-32q19.5-11.52,44.2-11.53Q1018.43,69.28,1035.33,77.89Z"/><path class="cls-1" d="M1229.68,206.26a82.65,82.65,0,0,1-32,32A90,90,0,0,1,1153,249.65q-24.7,0-44.85-11.37a82.92,82.92,0,0,1-31.85-32q-11.7-20.62-11.7-46.63t11.7-46.64a84.16,84.16,0,0,1,31.85-32.18q20.14-11.52,44.85-11.53a89.05,89.05,0,0,1,44.69,11.53,83.87,83.87,0,0,1,32,32.18q11.7,20.64,11.7,46.64T1229.68,206.26Zm-34-75.07a49.08,49.08,0,0,0-17.88-19.34,48.72,48.72,0,0,0-49.72,0,49,49,0,0,0-17.88,19.34,59.58,59.58,0,0,0-6.66,28.44q0,15.93,6.66,28.27a49.23,49.23,0,0,0,17.88,19.18,48.72,48.72,0,0,0,49.72,0,49.3,49.3,0,0,0,17.88-19.18q6.65-12.35,6.66-28.27A59.69,59.69,0,0,0,1195.72,131.19Z"/><path class="cls-1" d="M1372.52,74.8q6.64,5.53,6.66,13,0,10.08-5.2,15.11a17.12,17.12,0,0,1-12.35,5,32.54,32.54,0,0,1-11.05-2.27c-.65-.22-2.11-.65-4.39-1.3a26.47,26.47,0,0,0-7.31-1,28.92,28.92,0,0,0-16.25,5.2q-7.8,5.2-12.84,15.76t-5,25.19v77a19.47,19.47,0,0,1-5.52,14.13,20,20,0,0,1-28,0,19.44,19.44,0,0,1-5.53-14.13V92.35a19.49,19.49,0,0,1,5.53-14.14,20,20,0,0,1,28,0,19.52,19.52,0,0,1,5.52,14.14v4.23a49.3,49.3,0,0,1,21.45-20.32,66.08,66.08,0,0,1,29.9-7Q1365.85,69.28,1372.52,74.8Z"/><path class="cls-1" d="M1541.35,168.08A20.67,20.67,0,0,1,1527.7,173H1420.45q3.9,19.19,17.88,30.06a49.88,49.88,0,0,0,31.52,10.89q13.34,0,20.8-2.44a53.58,53.58,0,0,0,11.87-5.2c2.92-1.83,4.92-3.08,6-3.73a24.79,24.79,0,0,1,11-2.93,16,16,0,0,1,11.7,4.88,15.58,15.58,0,0,1,4.87,11.37q0,8.78-9.1,15.93-9.09,7.47-24.37,12.67a95.2,95.2,0,0,1-30.88,5.2q-27.3,0-47.61-11.37a79.39,79.39,0,0,1-31.36-31.37q-11.05-20-11-45,0-27.94,11.7-49.07t30.87-32.34a79.79,79.79,0,0,1,41-11.21A76,76,0,0,1,1505.77,81a87.49,87.49,0,0,1,30.38,31.52,84.7,84.7,0,0,1,11.38,42.9A16.71,16.71,0,0,1,1541.35,168.08Zm-120.57-27.63h85.15v-2.27q-1.31-13.65-13.33-23.4a42.15,42.15,0,0,0-27.3-9.75Q1427.61,105,1420.78,140.45Z"/></g></g></svg>