<?xml version="1.0" standalone="no"?>
<!DOCTYPE svg PUBLIC "-//W3C//DTD SVG 1.1//EN" "http://www.w3.org/Graphics/SVG/1.1/DTD/svg11.dtd">
<svg width="123" height="123" xmlns="http://www.w3.org/2000/svg" version="1.1">
<path stroke="#000" stroke-width=".5" d="

	M 61.5 61.5

	a 30.5 30.5	0 0 1 11-60
	a 15.25 15.25	0 0 1-5.5 30
	a 15.25 15.25	0 0 0-5.5 30

	a 30.5 30.5	0 0 1 60 11
	a 15.25 15.25	0 0 1-30-5.5
	a 15.25 15.25	0 0 0-30-5.5

	a 30.5 30.5	0 0 1-11 60
	a 15.25 15.25	0 0 1 5.5-30
	a 15.25 15.25	0 0 0 5.5-30

	a 30.5 30.5	0 0 1-60-11
	a 15.25 15.25	0 0 1 30 5.5
	a 15.25 15.25	0 0 0 30 5.5

"/>
</svg>
