<?xml version="1.0" encoding="utf-8"?>
<!-- Generator: Adobe Illustrator 24.0.2, SVG Export Plug-In . SVG Version: 6.00 Build 0)  -->
<svg version="1.1" id="Layer_1" xmlns="http://www.w3.org/2000/svg" xmlns:xlink="http://www.w3.org/1999/xlink" x="0px" y="0px"
	 viewBox="0 0 1567.5 325" style="enable-background:new 0 0 1567.5 325;" xml:space="preserve">
<style type="text/css">
	.st0{fill:#729F00;}
</style>
<title>mixcore-logo-green_1</title>
<g id="Layer_2_1_">
	<g id="mixcore">
		<path class="st0" d="M405.4,86h40v18.3c6.3-7.1,14.1-12.9,22.8-16.8c8.6-3.8,17.9-5.7,27.3-5.6c9.5-0.1,18.9,2.4,27,7.3
			c8,4.9,14.5,12,19.3,21.4c5.9-9,13.9-16.3,23.3-21.4c9.3-4.9,19.7-7.4,30.3-7.3c11.3,0,21.3,2.6,29.9,7.9
			c8.2,4.8,14.7,12,18.6,20.7c3.8,8.5,5.6,22.3,5.6,41.5v93.4h-40.3v-80.9c0-18.1-2.2-30.3-6.7-36.7c-4.5-6.4-11.2-9.6-20.2-9.6
			c-6.6-0.1-13,2-18.4,5.9c-5.5,4.1-9.7,9.7-12.1,16.2c-2.7,6.9-4,17.9-4,33.2v71.9h-40.2v-77.2c0-14.3-1.1-24.6-3.2-31
			s-5.3-11.2-9.5-14.3c-4.4-3.2-9.8-4.8-15.3-4.7c-6.5,0-12.9,2-18.1,5.9c-5.6,4.2-9.9,10-12.2,16.6c-2.7,7.1-4,18.4-4,33.7v70.9
			h-40L405.4,86z"/>
		<path class="st0" d="M703.3,20.4c6.8-0.1,13.3,2.7,18,7.6c4.9,4.9,7.6,11.5,7.5,18.5c0.1,6.8-2.6,13.4-7.5,18.2
			c-4.6,4.9-11.1,7.6-17.8,7.6c-6.9,0.1-13.5-2.7-18.2-7.7c-4.9-4.9-7.7-11.7-7.5-18.7c-0.1-6.8,2.6-13.3,7.4-18
			C690,23,696.5,20.2,703.3,20.4z M683.3,86h40v159.4h-40V86z"/>
		<path class="st0" d="M745.3,86h46.4l31.5,43.4L854.5,86h45.7l-54.1,75l61.2,84.4h-46.4l-37.9-52.3l-37.7,52.3h-45.7l60.5-83.8
			L745.3,86z"/>
		<path class="st0" d="M1083.7,118.2l-33.3,18.3c-6.3-6.6-12.4-11.1-18.6-13.6c-6.8-2.7-14.1-4-21.5-3.8c-15,0-27.1,4.5-36.3,13.4
			c-9.2,8.9-13.9,20.4-13.9,34.3c0,13.6,4.4,24.6,13.3,33.2c8.9,8.6,20.6,12.9,35,12.9c17.9,0,31.8-6.1,41.8-18.3l31.5,21.6
			c-17.1,22.2-41.2,33.3-72.4,33.3c-28,0-50-8.3-65.8-24.9c-15.9-16.6-23.8-36-23.8-58.3c-0.2-30.7,16.7-59,43.9-73.3
			c13.8-7.4,29.3-11.1,46.4-11.1c15.8,0,30,3.1,42.6,9.4C1065.2,97.5,1075.8,106.7,1083.7,118.2z"/>
		<path class="st0" d="M1194.5,81.9c14.9,0,29.5,3.9,42.4,11.3c12.9,7.2,23.6,17.8,31,30.6c7.4,12.7,11.2,27.1,11.1,41.7
			c0.1,14.8-3.8,29.4-11.2,42.2c-7.2,12.8-17.8,23.4-30.5,30.7c-13,7.4-27.7,11.2-42.6,11c-22.9,0-42.4-8.1-58.5-24.4
			c-16.2-16.3-24.2-36-24.2-59.3c0-24.9,9.1-45.6,27.4-62.3C1155.3,89.1,1173.7,81.9,1194.5,81.9z M1195.2,119.5
			c-12.4,0-22.8,4.3-31,13c-8.2,8.7-12.4,19.7-12.4,33.2c0,13.9,4.1,25.1,12.3,33.7c8.2,8.6,18.5,12.9,31,12.9
			c12.5,0,22.9-4.3,31.3-13c8.3-8.7,12.5-19.8,12.5-33.5c0-13.7-4.1-24.8-12.3-33.3C1218.3,123.9,1207.9,119.6,1195.2,119.5
			L1195.2,119.5z"/>
		<path class="st0" d="M1302.3,86h34.3v20.1c3.7-7.9,8.6-13.9,14.8-18c6-4,13-6.2,20.2-6.2c5.7,0.1,11.2,1.5,16.3,4.1l-12.5,34.4
			c-4.7-2.3-8.5-3.5-11.6-3.5c-6.1,0-11.3,3.8-15.6,11.4c-4.3,7.6-6.4,22.6-6.4,44.8l0.2,7.8v64.4h-39.7L1302.3,86z"/>
		<path class="st0" d="M1567.3,177.2h-128.5c1.9,11.3,6.8,20.3,14.9,27c8.1,6.7,18.3,10,30.8,10c14.4,0.2,28.3-5.4,38.5-15.7
			l33.7,15.8c-8.4,11.9-18.5,20.7-30.2,26.4c-11.7,5.7-25.6,8.6-41.8,8.6c-25,0-45.4-7.9-61.1-23.6c-15.7-15.8-23.6-35.5-23.6-59.3
			c0-24.3,7.8-44.5,23.5-60.6s35.3-24.1,59-24.1c25.1,0,45.5,8,61.2,24.1s23.6,37.3,23.6,63.6L1567.3,177.2z M1527.3,145.7
			c-2.6-8.8-8.1-16.5-15.6-21.7c-7.9-5.6-17.4-8.5-27.1-8.3c-10.5-0.2-20.9,3.1-29.3,9.4c-5.3,3.9-10.2,10.8-14.7,20.7H1527.3z"/>
		<path class="st0" d="M0,325V0h325v325H0z M17.9,306H306V18.1H18L17.9,306z"/>
		<path class="st0" d="M107.4,54.8v214.6H54.6V54.8H107.4z"/>
		<path class="st0" d="M135.7,54.5h52.6v214.8h-52.6V54.5z"/>
		<path class="st0" d="M269.3,269.5h-52.6V54.7h52.6V269.5z"/>
	</g>
</g>
</svg>
