<svg xmlns="http://www.w3.org/2000/svg" viewBox="0 0 1567.49 325"><defs><style>.cls-1{fill:#729f00}</style></defs><title>mixcore-logo-green_1</title><g id="Layer_2" data-name="Layer 2"><g id="mixcore"><path d="M405.42,86h40v18.31a68.23,68.23,0,0,1,22.79-16.85,66.59,66.59,0,0,1,27.34-5.56,50.83,50.83,0,0,1,27,7.32q12,7.33,19.35,21.39A64.63,64.63,0,0,1,565.25,89.2a63.82,63.82,0,0,1,30.27-7.32q17,0,29.91,7.91A45.63,45.63,0,0,1,644,110.44q5.64,12.75,5.64,41.46v93.45H609.33V164.49q0-27.09-6.74-36.69t-20.21-9.6A30.72,30.72,0,0,0,564,124.06a34.7,34.7,0,0,0-12.08,16.19q-4,10.33-4,33.18v71.92H507.67V168.16q0-21.39-3.16-31T495,122.89a24.93,24.93,0,0,0-15.27-4.69,30.06,30.06,0,0,0-18.13,5.94,35.33,35.33,0,0,0-12.19,16.62q-4,10.69-4,33.69v70.9h-40Z" class="cls-1"/><path d="M703.3,20.35a24.46,24.46,0,0,1,18,7.62,25.32,25.32,0,0,1,7.52,18.46,25,25,0,0,1-7.45,18.23,24.11,24.11,0,0,1-17.82,7.55,24.49,24.49,0,0,1-18.18-7.69,25.7,25.7,0,0,1-7.52-18.68,24.61,24.61,0,0,1,7.44-18A24.47,24.47,0,0,1,703.3,20.35ZM683.31,86h40V245.35h-40Z" class="cls-1"/><path d="M745.27,86H791.7l31.51,43.44L854.55,86H900.2l-54.11,75,61.19,84.37H860.84l-37.9-52.27-37.72,52.27H739.56l60.49-83.84Z" class="cls-1"/><path d="M1083.65,118.2l-33.29,18.32q-9.39-9.83-18.56-13.63a55.69,55.69,0,0,0-21.48-3.81q-22.44,0-36.3,13.39t-13.86,34.29q0,20.34,13.35,33.2t35,12.87q26.84,0,41.8-18.31l31.53,21.59q-25.64,33.34-72.36,33.34-42,0-65.85-24.9t-23.8-58.3A82,82,0,0,1,963.75,93q20.73-11.13,46.36-11.13,23.73,0,42.63,9.44A80.92,80.92,0,0,1,1083.65,118.2Z" class="cls-1"/><path d="M1194.54,81.88a84.46,84.46,0,0,1,42.4,11.28,81.48,81.48,0,0,1,31,30.61,82.3,82.3,0,0,1,11.14,41.75,83.73,83.73,0,0,1-11.21,42.19,81,81,0,0,1-30.54,30.69,84.37,84.37,0,0,1-42.63,11q-34.28,0-58.52-24.39t-24.24-59.25q0-37.35,27.39-62.25Q1163.34,81.87,1194.54,81.88Zm.65,37.64q-18.63,0-31,13t-12.4,33.18q0,20.79,12.25,33.69t31,12.89q18.78,0,31.25-13t12.47-33.54q0-20.52-12.25-33.33T1195.19,119.52Z" class="cls-1"/><path d="M1302.35,86h34.28v20.07q5.56-11.86,14.79-18a35.7,35.7,0,0,1,20.22-6.15A37.5,37.5,0,0,1,1387.9,86l-12.46,34.42q-7-3.51-11.57-3.51-9.22,0-15.6,11.42t-6.37,44.83l.15,7.76v64.45h-39.7Z" class="cls-1"/><path d="M1567.34,177.24H1438.87q2.79,17,14.87,27t30.83,10a53.27,53.27,0,0,0,38.53-15.68l33.69,15.82q-12.6,17.88-30.17,26.45t-41.75,8.56q-37.5,0-61.09-23.65t-23.58-59.26q0-36.47,23.51-60.57t59-24.09q37.65,0,61.23,24.09t23.59,63.65Zm-40-31.5a40.14,40.14,0,0,0-15.63-21.68,45.36,45.36,0,0,0-27.07-8.35,47.89,47.89,0,0,0-29.35,9.38q-7.92,5.86-14.67,20.65Z" class="cls-1"/><path d="M0,325V0H325V325Zm17.94-19H306V18.07h-288Z" class="cls-1"/><path d="M107.39,54.79V269.36H54.63V54.79Z" class="cls-1"/><path d="M135.71,54.54h52.58V269.29H135.71Z" class="cls-1"/><path d="M269.29,269.46H216.71V54.71h52.58Z" class="cls-1"/></g></g></svg>