<svg version="1.1" id="Layer_1" xmlns="http://www.w3.org/2000/svg" xmlns:xlink="http://www.w3.org/1999/xlink" x="0px" y="0px"
	 viewBox="0 0 549.4 112" style="enable-background:new 0 0 549.4 112;" xml:space="preserve">
<style type="text/css">
	.st0{fill-rule:evenodd;clip-rule:evenodd;fill:#FF0066;}
	.st1{fill:#FF0066;}
</style>
<g id="Layer_2_1_">
	<g id="Layer_1-2">
		<path class="st0" d="M100.3,11.7C89.8,1.2,74.6,0,56,0S22.2,1.2,11.6,11.7S0,37.5,0,56s1.1,33.8,11.6,44.3S37.4,112,56,112
			s33.8-1.1,44.4-11.6S112,74.6,112,56S110.9,22.2,100.3,11.7z M42.5,33.9v44.4c0,0.9,0,1.9-0.1,2.8c-0.1,0.7-0.4,1.4-0.8,2.1
			c-0.7,1.4-2.8,2.2-6.2,2.2c-3.7,0-5.9-1-6.6-3c-0.4-1.3-0.5-2.7-0.5-4.1V33.7c0-0.9,0-1.8,0.1-2.7c0.1-0.7,0.4-1.5,0.8-2.1
			c0.8-1.4,2.8-2.2,6.2-2.2c3.7,0,6,1,6.6,3C42.4,31.1,42.6,32.5,42.5,33.9z M63,33.9v44.4c0,0.9,0,1.9-0.1,2.8
			c-0.1,0.7-0.4,1.4-0.8,2.1c-0.7,1.4-2.8,2.2-6.2,2.2c-3.7,0-5.9-1-6.6-3c-0.4-1.3-0.5-2.7-0.5-4.1l0-44.5c0-0.9,0-1.8,0.1-2.7
			c0.1-0.7,0.4-1.5,0.8-2.1c0.8-1.4,2.8-2.2,6.2-2.2c3.7,0,6,1,6.6,3C63,31.1,63.1,32.5,63,33.9z M83.6,33.9v44.4
			c0,0.9,0,1.9-0.1,2.8c-0.1,0.7-0.4,1.4-0.8,2.1c-0.7,1.4-2.8,2.2-6.2,2.2c-3.7,0-5.9-1-6.6-3c-0.4-1.3-0.5-2.7-0.5-4.1V33.7
			c0-0.9,0-1.8,0.1-2.7c0.1-0.7,0.4-1.5,0.8-2.1c0.8-1.4,2.8-2.2,6.2-2.2c3.7,0,5.9,1,6.6,3C83.6,31.1,83.7,32.5,83.6,33.9z"/>
		<path class="st1" d="M140.4,27.8h14.1v6.4c2.2-2.5,4.9-4.5,8-5.9c3-1.3,6.3-2,9.6-2c3.3,0,6.6,0.8,9.5,2.6
			c2.9,1.8,5.3,4.4,6.8,7.5c2.1-3.1,4.9-5.7,8.2-7.5c3.3-1.7,6.9-2.6,10.6-2.6c3.7-0.1,7.3,0.9,10.5,2.8c2.9,1.7,5.2,4.2,6.5,7.3
			c1.3,3,2,7.9,2,14.6v32.9h-14.2V55.5c0-6.4-0.8-10.7-2.4-12.9c-1.6-2.3-4.3-3.5-7.1-3.4c-2.3,0-4.6,0.7-6.5,2.1
			c-2,1.4-3.4,3.4-4.3,5.7c-0.9,2.4-1.4,6.3-1.4,11.7v25.3h-14.2V56.8c0-5-0.4-8.7-1.1-10.9c-0.6-2-1.7-3.7-3.3-5
			c-1.6-1.1-3.5-1.7-5.4-1.7c-2.3,0-4.5,0.7-6.4,2.1c-2,1.5-3.5,3.5-4.3,5.9c-1,2.5-1.4,6.5-1.4,11.9v25h-14.1V27.8z"/>
		<path class="st1" d="M245.2,4.7c2.4,0,4.7,0.9,6.4,2.7c1.7,1.7,2.7,4.1,2.6,6.5c0,2.4-0.9,4.7-2.6,6.4c-1.6,1.7-3.9,2.7-6.3,2.7
			c-2.4,0-4.7-1-6.4-2.7c-1.7-1.7-2.7-4.1-2.6-6.6c0-2.4,0.9-4.7,2.6-6.3C240.5,5.7,242.8,4.7,245.2,4.7z M238.2,27.8h14.1v56.1
			h-14.1L238.2,27.8z"/>
		<path class="st1" d="M260,27.8h16.4l11.1,15.3l11-15.3h16.1l-19,26.4L317,83.9h-16.3l-13.4-18.4l-13.3,18.4H258l21.3-29.5
			L260,27.8z"/>
		<path class="st1" d="M379.1,39.2l-11.7,6.4c-1.8-2-4-3.7-6.5-4.8c-2.4-0.9-5-1.4-7.6-1.3c-5.3,0-9.5,1.6-12.8,4.7
			c-3.3,3.1-5,7.5-4.9,12.1c-0.2,4.4,1.5,8.7,4.7,11.7c3.1,3,7.2,4.5,12.3,4.5c6.3,0,11.2-2.2,14.7-6.4l11.1,7.6
			c-6,7.8-14.5,11.7-25.5,11.7c-9.9,0-17.6-2.9-23.2-8.8c-9.3-9.5-11-24.1-4.3-35.5c2.7-4.6,6.7-8.3,11.4-10.8
			c5-2.7,10.6-4,16.3-3.9c5.2-0.1,10.3,1.1,15,3.3C372.6,31.9,376.3,35.2,379.1,39.2z"/>
		<path class="st1" d="M418.1,26.4c5.2,0,10.4,1.4,14.9,4c9.2,5.2,14.9,14.9,14.8,25.5c0,5.2-1.3,10.3-4,14.8
			c-2.5,4.5-6.2,8.2-10.8,10.8c-4.6,2.6-9.7,4-15,3.9c-7.8,0.1-15.2-3-20.6-8.6c-5.6-5.5-8.7-13-8.6-20.9
			c-0.2-8.4,3.4-16.4,9.7-21.9C403.9,29.1,410.9,26.3,418.1,26.4z M418.4,39.6c-4.1-0.1-8.1,1.6-10.9,4.6c-3,3.2-4.5,7.4-4.4,11.7
			c0,4.9,1.4,8.8,4.3,11.9c2.8,3,6.8,4.7,10.9,4.5c4.2,0.1,8.2-1.6,11-4.6c3-3.2,4.6-7.4,4.4-11.8c0.2-4.3-1.4-8.6-4.3-11.7
			C426.5,41.1,422.5,39.5,418.4,39.6z"/>
		<path class="st1" d="M456.1,27.8h12.1v7.1c1.1-2.6,2.9-4.8,5.2-6.3c2.1-1.4,4.6-2.2,7.1-2.2c2,0,4,0.5,5.7,1.4L481.8,40
			c-1.2-0.7-2.6-1.1-4.1-1.2c-2.2,0-4,1.3-5.5,4c-1.5,2.7-2.2,7.9-2.2,15.8l0,2.7v22.7h-14L456.1,27.8z"/>
		<path class="st1" d="M549.3,60h-45.2c0.5,3.7,2.4,7.1,5.2,9.5c3.1,2.4,6.9,3.7,10.9,3.5c5.1,0.1,10-1.9,13.6-5.5l11.9,5.6
			c-2.7,4-6.4,7.2-10.6,9.3c-4.6,2.1-9.6,3.1-14.7,3c-8.8,0-16-2.8-21.5-8.3c-5.5-5.6-8.3-12.5-8.3-20.9c0-8.6,2.8-15.7,8.3-21.3
			c5.4-5.6,13-8.7,20.8-8.5c8.8,0,16,2.8,21.5,8.5s8.3,13.1,8.3,22.4L549.3,60z M535.3,48.9c-0.9-3.1-2.8-5.8-5.5-7.6
			c-2.8-2-6.1-3-9.5-2.9c-3.7-0.1-7.3,1.1-10.3,3.3c-1.9,1.4-3.6,3.8-5.2,7.3H535.3z"/>
	</g>
</g>
</svg>
