<svg xmlns="http://www.w3.org/2000/svg" viewBox="0 0 546.14 112"><defs><style>.cls-1,.cls-2{fill:#f06;}.cls-2{fill-rule:evenodd;}.cls-3{fill:#fff;}</style></defs><g id="Layer_2" data-name="Layer 2"><g id="Layer_1-2" data-name="Layer 1"><path class="cls-1" d="M147.53,85q-7.12,0-7.13-7.36V34.18q0-7.24,7-7.25t7,7.25v2.3a18.32,18.32,0,0,1,7-7.19A20.29,20.29,0,0,1,171.8,26.7q12.64,0,16.56,11A19.6,19.6,0,0,1,196,29.63a21.69,21.69,0,0,1,11.27-2.93q19,0,19,23.12V77.65Q226.2,85,219,85t-7.13-7.36V50.39q0-6.44-2.13-9.43c-1.42-2-3.81-3-7.19-3a10.76,10.76,0,0,0-8.85,4q-3.22,4-3.22,11V77.65q0,7.36-7.13,7.36t-7.25-7.36V50.39q0-6.44-2.12-9.43c-1.43-2-3.78-3-7.08-3a10.75,10.75,0,0,0-8.85,4q-3.23,4-3.22,11V77.65Q154.78,85,147.53,85Z"/><path class="cls-1" d="M248.16,16.35a9.08,9.08,0,0,1-6.27-2,7.12,7.12,0,0,1-2.24-5.58,7.08,7.08,0,0,1,2.24-5.63,9.22,9.22,0,0,1,6.27-2q8.51,0,8.51,7.59T248.16,16.35Zm0,68.54a6.71,6.71,0,0,1-5.29-2.06A8.35,8.35,0,0,1,241,77.07V34.87q0-7.83,7.13-7.82t7.25,7.82v42.2a8.4,8.4,0,0,1-1.84,5.76A6.86,6.86,0,0,1,248.16,84.89Z"/><path class="cls-1" d="M274.27,84.67a6.19,6.19,0,0,1-4.2-1.44,4.9,4.9,0,0,1-1.73-3.74,7.72,7.72,0,0,1,1.9-4.83l15.87-19.55L271.39,36.94a7.17,7.17,0,0,1-1.95-4.83,5,5,0,0,1,1.78-3.74,6.19,6.19,0,0,1,4.2-1.44,9.58,9.58,0,0,1,4.42.92,10,10,0,0,1,3.28,2.88l11.27,14.49,11.39-14.49a11.31,11.31,0,0,1,3.33-2.88,9,9,0,0,1,4.26-.92,6,6,0,0,1,4.25,1.5,5.11,5.11,0,0,1,1.67,3.79,7.43,7.43,0,0,1-2,4.83L302.56,55.11l16,19.55a6.82,6.82,0,0,1,2,4.71,5.25,5.25,0,0,1-1.78,3.8,6.21,6.21,0,0,1-4.32,1.5,9.29,9.29,0,0,1-7.59-3.8L294.28,65.11,281.86,80.87a11.49,11.49,0,0,1-3.22,2.82A8.8,8.8,0,0,1,274.27,84.67Z"/><path class="cls-1" d="M357.65,85.24a31.47,31.47,0,0,1-15.42-3.62,25,25,0,0,1-10.12-10.3,32.76,32.76,0,0,1-3.56-15.64,31.73,31.73,0,0,1,3.56-15.46,24.47,24.47,0,0,1,10.12-10,32.23,32.23,0,0,1,15.42-3.51,36.26,36.26,0,0,1,8.22,1,27.89,27.89,0,0,1,8.34,3.45,5.26,5.26,0,0,1,2.7,3.56,6,6,0,0,1-.57,4,5.69,5.69,0,0,1-2.88,2.64,4.72,4.72,0,0,1-4.31-.57,20.73,20.73,0,0,0-10.24-3q-7.47,0-11.56,4.66T343.27,55.8q0,8.51,4.08,13.4t11.56,4.88a21.38,21.38,0,0,0,10.24-2.87,4.65,4.65,0,0,1,4.25-.58,5,5,0,0,1,2.65,2.71,6.54,6.54,0,0,1,.34,4,5.49,5.49,0,0,1-2.64,3.51,28.88,28.88,0,0,1-8.05,3.34A34.64,34.64,0,0,1,357.65,85.24Z"/><path class="cls-1" d="M410.43,85.24a30.94,30.94,0,0,1-15.18-3.56,24.83,24.83,0,0,1-10-10.18,32.36,32.36,0,0,1-3.57-15.59,32,32,0,0,1,3.57-15.52,24.86,24.86,0,0,1,10-10.12,34.06,34.06,0,0,1,30.36,0,24.89,24.89,0,0,1,10,10.12,32,32,0,0,1,3.56,15.52,32.36,32.36,0,0,1-3.56,15.59,24.86,24.86,0,0,1-10,10.18A30.91,30.91,0,0,1,410.43,85.24Zm0-10.93a12.83,12.83,0,0,0,10.35-4.65q3.92-4.66,3.91-13.75t-3.91-13.74a14.07,14.07,0,0,0-20.7,0q-3.91,4.55-3.91,13.74t3.91,13.75A12.86,12.86,0,0,0,410.43,74.31Z"/><path class="cls-1" d="M458.39,85Q451,85,451,77.65V34.18q0-7.24,7-7.25t7,7.25v3.56q4.14-9.89,17.71-11,5-.57,5.52,5.64t-6,6.78l-2.53.23q-14.14,1.38-14.14,14.49V77.65Q465.64,85,458.39,85Z"/><path class="cls-1" d="M522.91,85.24a35.49,35.49,0,0,1-16.45-3.56,25.32,25.32,0,0,1-10.64-10.13A30.82,30.82,0,0,1,492.09,56a31.07,31.07,0,0,1,3.62-15.3,26.66,26.66,0,0,1,10-10.29,28.3,28.3,0,0,1,14.55-3.74q12,0,18.92,7.59t7,20.7q0,4.26-5.52,4.26H505.89q1.61,15.06,17.25,15.06a34.58,34.58,0,0,0,6.73-.74A24.53,24.53,0,0,0,536.94,71q3-1.73,5.06-1.09a4.5,4.5,0,0,1,2.93,2.47,5.68,5.68,0,0,1,.23,4.08,6.78,6.78,0,0,1-3.28,3.86A29.91,29.91,0,0,1,532.63,84,43.15,43.15,0,0,1,522.91,85.24Zm-2.07-48.76a13.84,13.84,0,0,0-10.24,3.91A17.36,17.36,0,0,0,505.89,51h28.29q-.46-7-3.85-10.75T520.84,36.48Z"/><path id="路径" class="cls-2" d="M100.33,11.7C89.76,1.18,74.57,0,56,0S22.19,1.19,11.63,11.74,0,37.49,0,56.05s1.07,33.77,11.64,44.33S37.41,112,56,112s33.8-1.07,44.36-11.62S112,74.63,112,56.05s-1.09-33.8-11.67-44.35Z"/><path class="cls-3" d="M28.36,33.72A23.16,23.16,0,0,1,28.48,31a6.36,6.36,0,0,1,.76-2.12q1.13-2.16,6.24-2.16c3.73,0,6,1,6.64,3a15.77,15.77,0,0,1,.4,4.16V78.28a23.13,23.13,0,0,1-.12,2.8,6.34,6.34,0,0,1-.76,2.08q-1.12,2.16-6.24,2.16-5.59,0-6.56-3a12.55,12.55,0,0,1-.48-4.08Z"/><path class="cls-3" d="M48.92,33.72A23.16,23.16,0,0,1,49,31a6.36,6.36,0,0,1,.76-2.12q1.13-2.16,6.24-2.16c3.73,0,6,1,6.64,3a15.77,15.77,0,0,1,.4,4.16V78.28a23.13,23.13,0,0,1-.12,2.8,6.34,6.34,0,0,1-.76,2.08Q61.08,85.32,56,85.32q-5.6,0-6.56-3a12.55,12.55,0,0,1-.48-4.08Z"/><path class="cls-3" d="M69.48,33.72A23.16,23.16,0,0,1,69.6,31a6.36,6.36,0,0,1,.76-2.12q1.13-2.16,6.24-2.16,5.59,0,6.64,3a15.77,15.77,0,0,1,.4,4.16V78.28a23.13,23.13,0,0,1-.12,2.8,6.34,6.34,0,0,1-.76,2.08q-1.12,2.16-6.24,2.16-5.59,0-6.56-3a12.55,12.55,0,0,1-.48-4.08Z"/></g></g></svg>